<svg width="48" height="48" fill="none" xmlns="http://www.w3.org/2000/svg"><circle cx="24" cy="24" r="24" fill="#F3F1FF"/><path d="M34.524 21.043H32.91c-.123 0-.24.05-.33.14l-.344.35c-.58-1.425-1.414-2.834-2.539-4.293C29.09 16.452 28.19 16 27.23 16h-6.46c-.96 0-1.86.452-2.467 1.24-1.16 1.505-1.977 2.88-2.544 4.288l-.34-.345a.463.463 0 0 0-.329-.14h-1.614c-.263 0-.476.226-.476.505v1.17c0 .267.195.488.447.505l1.658.11c-.25.778-.446 1.935-.446 3.567 0 1.417.266 2.347.73 2.95v2.727c0 .233.18.423.4.423h1.835c.22 0 .4-.19.4-.423v-1.693h11.953v1.693c0 .233.178.423.399.423h1.835c.22 0 .4-.19.4-.423V29.85c.464-.603.73-1.533.73-2.95 0-1.632-.195-2.79-.446-3.566l1.658-.11a.494.494 0 0 0 .447-.505v-1.17c0-.28-.213-.506-.476-.506zm-14.86-2.62a1.393 1.393 0 0 1 1.106-.556h6.46c.43 0 .833.202 1.105.555.787 1.02 1.409 1.997 1.89 2.97l-12.46.003c.47-.951 1.095-1.929 1.9-2.973zm-1.357 10.39c-.914 0-1.654-.317-1.654-1.085s.268-1.39 1.182-1.39c.914 0 2.126.622 2.126 1.39 0 .768-.74 1.085-1.654 1.085zm7.427-.16h-3.468c-.523 0-.948-.451-.948-1.006 0-.155.119-.282.265-.282h4.834c.146 0 .265.127.265.282 0 .555-.425 1.006-.948 1.006zm3.96.16c-.915 0-1.655-.317-1.655-1.085s1.212-1.39 2.126-1.39c.914 0 1.182.622 1.182 1.39 0 .768-.74 1.085-1.654 1.085z" fill="#765EF9"/></svg>