<svg width="48" height="48" fill="none" xmlns="http://www.w3.org/2000/svg"><circle cx="24" cy="24" r="24" fill="#FEF1E2"/><path d="M31.283 18.353c.02-.454-.137-.922-.375-1.161.225-.3.355-.747.208-1.092-.093-.22-.33-.481-.93-.481-.048 0-.098.002-.148.005A1.004 1.004 0 0 0 29.13 15c-.201 0-.57.071-.869.524a.713.713 0 0 0-.121-.009c-.285 0-.818.155-1.036.57-.118.226-.177.601.178 1.133-.188.28-.741 1.191-1.293 2.896-.232.715-1.018 2.379-3.31 2.379-1.716 0-3.855-.942-6.358-2.799a.161.161 0 0 0-.136-.027.16.16 0 0 0-.107.085c-.024.047-.526 1.136 1.34 2.995-.304.063-.598.216-.7.507-.128.365.098.796.669 1.28-.14.062-.267.153-.327.31-.11.287.037.705.494 1.398.711 1.08 2.339 3.544 6.19 3.747 0 .015-.004.03-.004.044v1.86h-.667a.56.56 0 0 0-.566.553.56.56 0 0 0 .566.554h3.438a.56.56 0 0 0 .565-.554.56.56 0 0 0-.566-.554h-1.637v-1.858c0-.017-.004-.033-.006-.047 1.578-.093 2.93-.545 3.935-1.323 1.165-.902 1.781-2.177 1.781-3.689-.017-.858-.136-1.41-.25-1.947-.118-.555-.23-1.079-.238-1.93-.01-.373.113-.88.405-1.171.15-.15.33-.225.535-.225.21 0 .451.077.716.23a.162.162 0 0 0 .243-.114c.004-.034.098-.793-.712-1.465z" fill="#FFA22B"/></svg>