<svg width="48" height="48" fill="none" xmlns="http://www.w3.org/2000/svg"><circle cx="24" cy="24" r="24" fill="#DAEEF4"/><path d="M21 25.304a1.571 1.571 0 0 1-.812-1.378v-2.092c0-.865.698-1.569 1.557-1.569.343 0 .657.116.915.306l3.06-2.398h2.289c1.433 0 2.595-1.206 2.595-2.65V15h-7.552c-3.801 0-6.983 3.027-7.05 6.706a6.778 6.778 0 0 0 1.765 4.71c.037.04.097.085.132.125h2.487L21 25.304z" fill="#38849B"/><path d="M29.04 19.22h-2.964l-2.83 2.217c.033.128.056.26.056.397v.523h-1.038v-.523a.521.521 0 0 0-.519-.523.521.521 0 0 0-.52.523v2.092c0 .289.233.523.52.523.287 0 .52-.235.52-.523h1.037c0 .747-.521 1.371-1.216 1.529l-1.058 2.132h-2.425c.34.654.542 1.347.546 2.047v3.218h7.268v-2.126h1.592c.859 0 1.557-.704 1.557-1.57v-1.369l-1.434-.723 1.434-.722v-1.046L32 24.07l-2.437-2.456a6.832 6.832 0 0 0-.523-2.395z" fill="#38849B"/></svg>