<svg width="83" height="24" fill="none" xmlns="http://www.w3.org/2000/svg"><path d="M4 12.5h79" stroke="#CECECE" stroke-linejoin="bevel" stroke-dasharray="2 2"/><path fill="#fff" d="M30 0h24v24H30z"/><path d="M48.51 11.04a14.577 14.577 0 0 0-9.306-3.362H32v8.117h.902c.215.41.639.692 1.133.692s.918-.282 1.133-.692h2.92c.214.41.638.692 1.133.692.494 0 .918-.282 1.132-.692h2.92c.215.41.64.692 1.133.692.495 0 .919-.282 1.133-.692h1.74c1.143 0 3.722-.946 3.721-2.088 0-.463-1.139-1.546-2.49-2.668zM33.263 8.941h5.94c.985 0 1.959.123 2.91.337v1.45c0 .557.452 1.008 1.008 1.008h4.217c.12.093.246.178.363.275.475.394.839.714 1.125.978H33.264V8.942z" fill="#A1A1A1"/><path d="M34.37 11.805h1.383a.118.118 0 0 0 .118-.119v-1.383a.119.119 0 0 0-.119-.118H34.37a.119.119 0 0 0-.119.118v1.383c0 .066.053.119.119.119zm2.53 0h1.383a.118.118 0 0 0 .118-.119v-1.383a.119.119 0 0 0-.118-.118H36.9a.119.119 0 0 0-.118.118v1.383c0 .066.053.119.118.119zm2.528 0h1.383a.118.118 0 0 0 .118-.119v-1.383a.119.119 0 0 0-.118-.118h-1.383a.119.119 0 0 0-.119.118v1.383c0 .066.053.119.119.119z" fill="#A1A1A1"/><circle cx="3" cy="12" r="3" fill="#CECECE"/><circle cx="80" cy="12" r="3" fill="#CECECE"/></svg>