<svg width="83" height="24" fill="none" xmlns="http://www.w3.org/2000/svg"><path d="M4 12.5h79" stroke="#CECECE" stroke-linejoin="bevel" stroke-dasharray="2 2"/><path fill="#fff" d="M30 0h24v24H30z"/><path d="M32.42 13.785h.558c.138-.696.383-1.649.773-2.153C35.573 9.268 37.86 8 40.737 8c1.864 0 3.077.182 3.71.557.085.05.336.2 1.016 1.566.992.016 3.616.196 4.874 1.614.632.711.883 1.476.98 2.048h.263a.42.42 0 0 1 0 .842h-.21l-.004.045a.42.42 0 0 1-.418.376h-.53a2.105 2.105 0 0 1-1.927 1.263c-.86 0-1.601-.52-1.927-1.263h-8.029a2.105 2.105 0 0 1-1.926 1.263c-.862 0-1.602-.52-1.927-1.263h-1.427a.421.421 0 0 1-.421-.42h-.414a.42.42 0 0 1 0-.843zm16.071 1.684a1.264 1.264 0 0 0 0-2.526c-.697 0-1.264.566-1.264 1.263s.567 1.263 1.264 1.263zm-7.463-4.896c0 .116.093.21.21.21h3.27a.21.21 0 0 0 .189-.303c-.155-.317-.434-.867-.568-.98-.445-.284-1.338-.418-2.676-.418-.073 0-.146 0-.22.002a.21.21 0 0 0-.205.21v1.278zm-.422 0V9.354a.212.212 0 0 0-.235-.21c-1.482.175-2.622.665-3.05 1.312a.21.21 0 0 0 .176.327h2.9a.21.21 0 0 0 .209-.21zm-3.997 4.896c.696 0 1.263-.566 1.263-1.263a1.264 1.264 0 0 0-2.527 0c0 .697.568 1.263 1.264 1.263z" fill="#A1A1A1"/><circle cx="3" cy="12" r="3" fill="#CECECE"/><circle cx="80" cy="12" r="3" fill="#CECECE"/></svg>