<svg width="83" height="24" fill="none" xmlns="http://www.w3.org/2000/svg"><path d="M4 12.5h79" stroke="#CECECE" stroke-linejoin="bevel" stroke-dasharray="2 2"/><path fill="#fff" d="M30 0h23.963v24H30z"/><path d="M50.193 11.723a1.35 1.35 0 0 0-1.401-1.324l-4.138.157-3.424-6.52-2.077.036 1.7 6.629-4.258.162-1.146-1.537-1.877.033 1.325 2.631-1.232 2.676 1.877-.033 1.09-1.575 4.263.013-1.469 6.684 2.077-.037 3.195-6.636 4.14.013a1.35 1.35 0 0 0 1.355-1.372z" fill="#A1A1A1"/><circle cx="3" cy="12" r="3" fill="#CECECE"/><circle cx="80" cy="12" r="3" fill="#CECECE"/></svg>