<svg width="48" height="48" fill="none" xmlns="http://www.w3.org/2000/svg"><circle cx="24" cy="24" r="24" fill="#FCE8E0"/><path fill-rule="evenodd" clip-rule="evenodd" d="M20.439 23.122c-.422.848-.968 1.975-1.57 3.97C15 28 15.008 31.71 15.34 32.827h-.753a.586.586 0 0 0 0 1.172h5.734l.53-1.947a.585.585 0 1 1 1.128.308L21.528 34h6.238l-1.637-4.03a.586.586 0 1 1 1.085-.44l1.81 4.47h4.39a.586.586 0 1 0 0-1.172h-.754c.84-3.416-1.243-6.42-3.637-6.828-.622-1.156-.748-1.415-1.416-2.78l-.04-.082-.827-2.068h-5.48l-.821 2.052z" fill="#E66027"/><path d="M21.07 18.727c.54 0 1.017-.249 1.34-.632.126.118.267.219.418.306V20h2.344v-1.598a2.35 2.35 0 0 0 .419-.307c.322.383.799.632 1.339.632a1.76 1.76 0 0 0 1.758-1.758c0-.971-.787-1.797-1.758-1.797-.29 0-.56.077-.802.202A2.34 2.34 0 0 0 24 14a2.34 2.34 0 0 0-2.128 1.374 1.738 1.738 0 0 0-.802-.202c-.97 0-1.758.826-1.758 1.797 0 .97.787 1.758 1.758 1.758z" fill="#E66027"/></svg>