<svg width="48" height="48" fill="none" xmlns="http://www.w3.org/2000/svg"><circle cx="24" cy="24" r="24" fill="#FBE6EA"/><path d="M34.5 18.94a.55.55 0 0 0-.55-.54h-2.895a8.121 8.121 0 0 0 .567-1.595 11.26 11.26 0 0 0 .32-2.89c-.023-.55-.753-.73-1.025-.25a7.96 7.96 0 0 1-1.783 2.18 7.03 7.03 0 0 1-1.84 1.121 6.845 6.845 0 0 1-1.132.358h-4.329c-1.195-.267-3.3-1.094-4.753-3.659-.272-.48-1.002-.3-1.026.25-.002.056-.054 1.382.32 2.89a8.22 8.22 0 0 0 .568 1.596H14.05a.55.55 0 0 0-.55.54v.002c0 .049-.003 1.745 1.19 2.983.743.769 1.766 1.211 3.048 1.318 0 1.655.242 2.875.737 3.716.898 1.526 1.121 6.061 1.132 7.68 0 .091.023.181.067.261.077.143.302.42.934.658.773.293 1.914.441 3.392.441s2.62-.148 3.392-.44c.632-.24.857-.516.934-.659l.066-.122.001-.139c.01-1.618.233-6.152 1.132-7.68.495-.841.737-2.06.737-3.716 1.282-.107 2.305-.549 3.047-1.318 1.193-1.236 1.191-2.93 1.191-2.982v-.004zm-16.301-.54c-.496-.79-.759-1.73-.897-2.54a8.169 8.169 0 0 0 2.379 1.848 5.237 5.237 0 0 0-1.035.693h-.447zm1.213 7.246c-.417-.22-.534-.825-.26-1.348.274-.524.834-.77 1.252-.549.417.221.534.825.26 1.349s-.834.77-1.252.548zm7.886 8.74c-.135.082-.423.215-.974.324-.292-.435-.937-1.02-2.3-1.027h-.025c-1.368.006-2.012.596-2.302 1.032-.566-.11-.86-.246-.996-.328-.004-.225-.013-.59-.034-1.048.797-.702 2.23-2.41 2.283-5.649.073-4.494-2.892-5.168-1.794-6.875 1.098-1.708 2.306-1.34 2.855-1.34.55 0 1.758-.368 2.856 1.34 1.098 1.707-1.867 2.381-1.794 6.875.052 3.207 1.458 4.913 2.259 5.628-.02.467-.03.84-.034 1.068zm1.313-8.74c-.417.221-.978-.024-1.251-.548-.274-.524-.157-1.128.26-1.349.418-.22.978.025 1.252.549.273.524.157 1.127-.26 1.348zm1.187-7.245h-.444a5.29 5.29 0 0 0-1.037-.694 8.144 8.144 0 0 0 1.493-.99 8.49 8.49 0 0 0 .885-.857c-.138.81-.401 1.75-.897 2.54z" fill="#B61D2F"/></svg>