<svg width="83" height="20" fill="none" xmlns="http://www.w3.org/2000/svg"><path d="M4 10.5h79" stroke="#CECECE" stroke-linejoin="bevel" stroke-dasharray="2 2"/><path fill="#fff" d="M30 0h24v20H30z"/><path d="M49.544 10.028a1.254 1.254 0 0 0-1.303-1.23l-3.848.147-3.185-6.054-1.931.033 1.581 6.155-3.96.15-1.066-1.426-1.745.03 1.231 2.444-1.145 2.485 1.745-.031 1.015-1.463 3.964.012-1.366 6.206 1.931-.033 2.972-6.162 3.85.012a1.254 1.254 0 0 0 1.26-1.275z" fill="#A1A1A1"/><circle cx="3" cy="10" r="3" fill="#CECECE"/><circle cx="80" cy="10" r="3" fill="#CECECE"/></svg>