<svg width="48" height="48" fill="none" xmlns="http://www.w3.org/2000/svg"><circle cx="24" cy="24" r="24" fill="#EBF9EA"/><path fill-rule="evenodd" clip-rule="evenodd" d="M27 13.993h2a2 2 0 0 1 2 2.002v14.01a2.002 2.002 0 0 1-2 2L32 35h-3l-1.14-1.139h-7.72L19 35h-3l3-2.995a2 2 0 0 1-2-2v-14.01c0-1.101.9-2.002 2-2.002h2c0-.548.445-.993.993-.993h4.014c.548 0 .993.445.993.993zm-1 18.012h-4l-.857.856h5.714L26 32.005zm-6-13.008a1 1 0 0 0-1 1V24a1 1 0 0 0 1 1h8a1 1 0 0 0 1-1v-4.004a1 1 0 0 0-1-1h-8zm.5 11.007a1.5 1.5 0 0 0 1.06-2.562 1.5 1.5 0 1 0-2.12 2.122 1.5 1.5 0 0 0 1.06.44zm7 0a1.5 1.5 0 0 0 1.06-2.562 1.5 1.5 0 1 0-2.12 2.122 1.5 1.5 0 0 0 1.06.44zM22 15.994v1.001h4v-1h-4z" fill="#30C034"/></svg>